{"title":"Grey Skies 2010 DVDRiP XViD-NoGRP","uid":6766281,"size":935313857,"categoryP":"video","categoryS":"movies","magnet":"?xt=urn:btih:1e1fa289c80c405bf6cdc594985ee3875fa682a0&amp;dn=Grey+Skies+2010+DVDRiP+XViD-NoGRP&amp;tr=udp%3A%2F%2Ftracker.openbittorrent.com%3A80&amp;tr=udp%3A%2F%2Fopen.demonii.com%3A1337&amp;tr=udp%3A%2F%2Ftracker.coppersurfer.tk%3A6969&amp;tr=udp%3A%2F%2Fexodus.desync.com%3A6969","seeders":1,"leechers":0,"uploader":"LegendET","files":2,"time":1319397244,"description":"[img]http://img28.imageshack.us/img28/1695/a05ae8c1a8a0.jpg[/img]\n\n\nGenre : Horror\n\nPlot : A group of old college friends reunite to relive their glory days by renting a beautiful cabin in the woods. As the sun sets on their first day in the cabin, bright flashes of light announce the arrival of mysterious creatures. These friends will have to outwit a force that is both inhuman and extremely intelligent in order to survive. The outcome will shock and amaze you as we come to realize... we are not alone in the universe.\n\n\n\n\n\nVideo \nID : 0 \nFormat : MPEG-4 Visual \nFormat profile : Advanced Simple@L5 \nFormat settings, BVOP : 2 \nFormat settings, QPel : No \nFormat settings, GMC : No warppoints \nFormat settings, Matrix : Default (H.263) \nMuxing mode : Packed bitstream \nCodec ID : XVID \nCodec ID/Hint : XviD \nDuration : 1h 24mn \nBit rate : 1 280 Kbps \nWidth : 720 pixels \nHeight : 404 pixels \nDisplay aspect ratio : 16:9 \nFrame rate : 23.976 fps \nColor space : YUV \nChroma subsampling : 4:2:0 \nBit depth : 8 bits \nScan type : Progressive \nCompression mode : Lossy \nBits/(Pixel*Frame) : 0.184 \nStream size : 770 MiB (86%) \nWriting library : XviD 1.2.1 (UTC 2008-12-04) \n\nAudio \nID : 1 \nFormat : AC-3 \nFormat/Info : Audio Coding 3 \nMode extension : CM (complete main) \nCodec ID : 2000 \nDuration : 1h 24mn \nBit rate mode : Constant \nBit rate : 192 Kbps \nChannel(s) : 2 channels \nChannel positions : Front: L R \nSampling rate : 48.0 KHz \nBit depth : 16 bits \nCompression mode : Lossy \nStream size : 115 MiB (13%) \nAlignment : Aligned on interleaves \nInterleave, duration : 32 ms (0.77 video frame) \nInterleave, preload duration : 32 ms\n &lt;a href=&quot;\nhttp://www.imdb.com/title/tt1568332/&quot; rel=&quot;nofollow&quot; target=&quot;_NEW&quot;&gt;\nhttp://www.imdb.com/title/tt1568332/&lt;/a&gt;\n\n","torrent":{"xt":"urn:btih:1e1fa289c80c405bf6cdc594985ee3875fa682a0","amp;dn":"Grey+Skies+2010+DVDRiP+XViD-NoGRP","amp;tr":["udp%3A%2F%2Ftracker.openbittorrent.com%3A80","udp%3A%2F%2Fopen.demonii.com%3A1337","udp%3A%2F%2Ftracker.coppersurfer.tk%3A6969","udp%3A%2F%2Fexodus.desync.com%3A6969"],"infoHash":"1e1fa289c80c405bf6cdc594985ee3875fa682a0","infoHashBuffer":{"type":"Buffer","data":[30,31,162,137,200,12,64,91,246,205,197,148,152,94,227,135,95,166,130,160]},"announce":[],"urlList":[]}}